HIERARCHY
ROOT hips_JNT
{
    OFFSET 0 0 0
    CHANNELS 6 Xposition Yposition Zposition Zrotation Xrotation Yrotation
    JOINT spine_JNT
    {
        OFFSET -0.000424254 9.31981 2.54342
        CHANNELS 3 Zrotation Xrotation Yrotation
        JOINT spine1_JNT
        {
            OFFSET 0 10.8731 -4.54485e-05
            CHANNELS 3 Zrotation Xrotation Yrotation
            JOINT spine2_JNT
            {
                OFFSET 0 12.4264 -5.95116
                CHANNELS 3 Zrotation Xrotation Yrotation
                JOINT neck_JNT
                {
                    OFFSET 0 13.9797 -1.46048
                    CHANNELS 3 Zrotation Xrotation Yrotation
                    JOINT head_JNT
                    {
                        OFFSET 0 5.8702 2.0915
                        CHANNELS 3 Zrotation Xrotation Yrotation
                        End Site
                        {
                            OFFSET 0 0 0
                        }
                    }
                }
                JOINT l_shoulder_JNT
                {
                    OFFSET 4.39914 12.861 -1.48501
                    CHANNELS 3 Zrotation Xrotation Yrotation
                    JOINT l_arm_JNT
                    {
                        OFFSET 8.75735 -2.31198 -0.0490516
                        CHANNELS 3 Zrotation Xrotation Yrotation
                        JOINT l_forearm_JNT
                        {
                            OFFSET 26.9001 -4.76837e-05 1.2666e-05
                            CHANNELS 3 Zrotation Xrotation Yrotation
                            JOINT l_hand_JNT
                            {
                                OFFSET 23.0148 -4.76837e-05 -3.72529e-06
                                CHANNELS 3 Zrotation Xrotation Yrotation
                                JOINT l_handThumb1_JNT
                                {
                                    OFFSET 3.63 -0.779998 2.13
                                    CHANNELS 3 Zrotation Xrotation Yrotation
                                    JOINT l_handThumb2_JNT
                                    {
                                        OFFSET 3.55114 -2.11837 2.24006
                                        CHANNELS 3 Zrotation Xrotation Yrotation
                                        JOINT l_handThumb3_JNT
                                        {
                                            OFFSET 2.15911 -1.11631 0.963467
                                            CHANNELS 3 Zrotation Xrotation Yrotation
                                            End Site
                                            {
                                                OFFSET 0 0 0
                                            }
                                        }
                                    }
                                }
                                JOINT l_handIndex1_JNT
                                {
                                    OFFSET 10.5149 -0.0410199 2.19757
                                    CHANNELS 3 Zrotation Xrotation Yrotation
                                    JOINT l_handIndex2_JNT
                                    {
                                        OFFSET 2.75183 -0.102866 -0.139054
                                        CHANNELS 3 Zrotation Xrotation Yrotation
                                        JOINT l_handIndex3_JNT
                                        {
                                            OFFSET 2.35301 -0.0733972 -0.0904871
                                            CHANNELS 3 Zrotation Xrotation Yrotation
                                            End Site
                                            {
                                                OFFSET 0 0 0
                                            }
                                        }
                                    }
                                }
                                JOINT l_handMiddle1_JNT
                                {
                                    OFFSET 10.0671 0.139201 0.0595726
                                    CHANNELS 3 Zrotation Xrotation Yrotation
                                    JOINT l_handMiddle2_JNT
                                    {
                                        OFFSET 3.90903 -0.288403 -0.119066
                                        CHANNELS 3 Zrotation Xrotation Yrotation
                                        JOINT l_handMiddle3_JNT
                                        {
                                            OFFSET 2.3284 -0.0191092 -0.0594396
                                            CHANNELS 3 Zrotation Xrotation Yrotation
                                            End Site
                                            {
                                                OFFSET 0 0 0
                                            }
                                        }
                                    }
                                }
                                JOINT l_handRing1_JNT
                                {
                                    OFFSET 9.46811 0.132239 -1.80983
                                    CHANNELS 3 Zrotation Xrotation Yrotation
                                    JOINT l_handRing2_JNT
                                    {
                                        OFFSET 3.28153 -0.224054 -0.0339366
                                        CHANNELS 3 Zrotation Xrotation Yrotation
                                        JOINT l_handRing3_JNT
                                        {
                                            OFFSET 2.245 -0.0702143 -0.00838935
                                            CHANNELS 3 Zrotation Xrotation Yrotation
                                            End Site
                                            {
                                                OFFSET 0 0 0
                                            }
                                        }
                                    }
                                }
                                JOINT l_handPinky1_JNT
                                {
                                    OFFSET 8.49077 -0.0777721 -3.58415
                                    CHANNELS 3 Zrotation Xrotation Yrotation
                                    JOINT l_handPinky2_JNT
                                    {
                                        OFFSET 2.53217 -0.0730753 -0.0170402
                                        CHANNELS 3 Zrotation Xrotation Yrotation
                                        JOINT l_handPinky3_JNT
                                        {
                                            OFFSET 1.95121 0.0251174 0.0170089
                                            CHANNELS 3 Zrotation Xrotation Yrotation
                                            End Site
                                            {
                                                OFFSET 0 0 0
                                            }
                                        }
                                    }
                                }
                            }
                        }
                    }
                }
                JOINT r_shoulder_JNT
                {
                    OFFSET -4.39782 12.8606 -1.48501
                    CHANNELS 3 Zrotation Xrotation Yrotation
                    JOINT r_arm_JNT
                    {
                        OFFSET -8.75732 -2.312 -0.0490502
                        CHANNELS 3 Zrotation Xrotation Yrotation
                        JOINT r_forearm_JNT
                        {
                            OFFSET -26.9 0 1.00583e-05
                            CHANNELS 3 Zrotation Xrotation Yrotation
                            JOINT r_hand_JNT
                            {
                                OFFSET -23.0149 0 0
                                CHANNELS 3 Zrotation Xrotation Yrotation
                                JOINT r_handThumb1_JNT
                                {
                                    OFFSET -3.63 -0.779998 2.13
                                    CHANNELS 3 Zrotation Xrotation Yrotation
                                    JOINT r_handThumb2_JNT
                                    {
                                        OFFSET -3.5512 -2.118 2.24006
                                        CHANNELS 3 Zrotation Xrotation Yrotation
                                        JOINT r_handThumb3_JNT
                                        {
                                            OFFSET -2.1591 -1.116 0.963467
                                            CHANNELS 3 Zrotation Xrotation Yrotation
                                            End Site
                                            {
                                                OFFSET 0 0 0
                                            }
                                        }
                                    }
                                }
                                JOINT r_handIndex1_JNT
                                {
                                    OFFSET -10.5149 -0.0409961 2.19756
                                    CHANNELS 3 Zrotation Xrotation Yrotation
                                    JOINT r_handIndex2_JNT
                                    {
                                        OFFSET -2.7518 -0.102997 -0.13905
                                        CHANNELS 3 Zrotation Xrotation Yrotation
                                        JOINT r_handIndex3_JNT
                                        {
                                            OFFSET -2.353 -0.0730038 -0.0904899
                                            CHANNELS 3 Zrotation Xrotation Yrotation
                                            End Site
                                            {
                                                OFFSET 0 0 0
                                            }
                                        }
                                    }
                                }
                                JOINT r_handMiddle1_JNT
                                {
                                    OFFSET -10.0671 0.139999 0.05957
                                    CHANNELS 3 Zrotation Xrotation Yrotation
                                    JOINT r_handMiddle2_JNT
                                    {
                                        OFFSET -3.9091 -0.288999 -0.11907
                                        CHANNELS 3 Zrotation Xrotation Yrotation
                                        JOINT r_handMiddle3_JNT
                                        {
                                            OFFSET -2.3284 -0.019002 -0.05944
                                            CHANNELS 3 Zrotation Xrotation Yrotation
                                            End Site
                                            {
                                                OFFSET 0 0 0
                                            }
                                        }
                                    }
                                }
                                JOINT r_handRing1_JNT
                                {
                                    OFFSET -9.4681 0.133002 -1.80983
                                    CHANNELS 3 Zrotation Xrotation Yrotation
                                    JOINT r_handRing2_JNT
                                    {
                                        OFFSET -3.2816 -0.224996 -0.0339396
                                        CHANNELS 3 Zrotation Xrotation Yrotation
                                        JOINT r_handRing3_JNT
                                        {
                                            OFFSET -2.245 -0.0699997 -0.0083901
                                            CHANNELS 3 Zrotation Xrotation Yrotation
                                            End Site
                                            {
                                                OFFSET 0 0 0
                                            }
                                        }
                                    }
                                }
                                JOINT r_handPinky1_JNT
                                {
                                    OFFSET -8.4908 -0.0769973 -3.58415
                                    CHANNELS 3 Zrotation Xrotation Yrotation
                                    JOINT r_handPinky2_JNT
                                    {
                                        OFFSET -2.5322 -0.0740051 -0.0170402
                                        CHANNELS 3 Zrotation Xrotation Yrotation
                                        JOINT r_handPinky3_JNT
                                        {
                                            OFFSET -1.9512 0.0259995 0.0170097
                                            CHANNELS 3 Zrotation Xrotation Yrotation
                                            End Site
                                            {
                                                OFFSET 0 0 0
                                            }
                                        }
                                    }
                                }
                            }
                        }
                    }
                }
            }
        }
    }
    JOINT l_upleg_JNT
    {
        OFFSET 10.0614 -5.18575 -0.706233
        CHANNELS 3 Zrotation Xrotation Yrotation
        JOINT l_leg_JNT
        {
            OFFSET -0.348572 -45.5824 -0.819168
            CHANNELS 3 Zrotation Xrotation Yrotation
            JOINT l_foot_JNT
            {
                OFFSET 0.349145 -42.3325 -1.70849
                CHANNELS 3 Zrotation Xrotation Yrotation
                JOINT l_toebase_JNT
                {
                    OFFSET 0.0702709 -8.12666 12.8887
                    CHANNELS 3 Zrotation Xrotation Yrotation
                    End Site
                    {
                        OFFSET 0 0 0
                    }
                }
            }
        }
    }
    JOINT r_upleg_JNT
    {
        OFFSET -10.061 -5.18577 -0.706233
        CHANNELS 3 Zrotation Xrotation Yrotation
        JOINT r_leg_JNT
        {
            OFFSET 0.34858 -45.5824 -0.819165
            CHANNELS 3 Zrotation Xrotation Yrotation
            JOINT r_foot_JNT
            {
                OFFSET -0.34918 -42.3325 -1.70849
                CHANNELS 3 Zrotation Xrotation Yrotation
                JOINT r_toebase_JNT
                {
                    OFFSET -0.0702001 -8.12666 12.8887
                    CHANNELS 3 Zrotation Xrotation Yrotation
                    End Site
                    {
                        OFFSET 0 0 0
                    }
                }
            }
        }
    }
}
MOTION
Frames: 7
Frame Time: 0.04
11.4516 101.903 2.30043 -1.72264 5.12511 -86.2347 7.05316 0.00597972 0 -1.58989e-14 2.66804e-07 0 -0.918311 -0.105818 4.11 -3.59398 4.07083 2.75002 -13.6297 -9.36647 -2.2029 -3.20165e-07 -3.20165e-07 0 -61.5764 32.1494 -40.1616 -13.7271 2.72479 -22.3536 -0 -3.41509e-06 0 4.10661 20.7048 -22.2077 -0 0 0 -15.9401 -0.220348 1.57417 -25.2044 7.28037 1.63035 -32.5164 9.16079 2.67617 -21.5728 6.29457 1.20006 -29.4238 5.61148 1.47509 -37.906 7.00502 2.40862 -25.199 4.86716 1.09001 -33.5141 -3.16033 -0.951202 -43.1161 -3.90997 -1.54557 -28.7186 -2.751 -0.70443 -36.8432 -6.83856 -2.28111 -47.5057 -8.38889 -3.69687 -31.5401 -5.97251 -1.68651 -3.20165e-07 -3.20165e-07 0 38.5078 32.7941 56.9728 15.3102 3.67966 26.882 2.98821e-06 -4.26887e-06 0 -4.10661 20.7048 22.2077 -0 0 0 14.9688 0.194455 1.48091 23.6531 6.86309 -1.43801 30.5039 8.65843 -2.36567 20.2483 5.9276 -1.06016 27.6201 5.29739 -1.30264 35.5749 6.63671 -2.13139 23.6564 4.58817 -0.960211 31.4676 -2.98822 0.840228 40.4809 -3.7144 1.37057 26.9658 -2.59635 0.620549 34.5784 -6.47573 2.01744 44.5735 -7.9901 3.27969 29.6052 -5.64274 1.49302 3.76824 -5.51331 -3.02232 -0.467657 1.59915 0.118694 1.59267 5.57646 -4.31044 -0.00226835 -0.820432 -0.306467 103.878 -82.9978 96.1345 170.012 61.7758 -163.379 2.56132e-06 -1.02453e-05 0 3.41509e-06 -1.70755e-06 0 
11.2762 101.872 2.98756 -1.61306 4.90099 -86.1425 6.88814 0.00567139 0.068528 -1.06722e-07 -4.53567e-07 0.0559529 -0.919517 -0.0984664 3.85525 -3.54058 3.70803 2.70468 -13.8059 -9.94559 -2.29922 2.13443e-07 -2.66804e-08 0 -62.8634 31.7468 -39.1028 -13.0009 2.66831 -23.1041 -0 0 0 4.10661 20.7048 -22.2077 -0 0 0 -15.9487 -0.220583 1.57467 -25.2181 7.28402 1.63179 -32.5342 9.16517 2.67997 -21.5845 6.29779 1.20267 -29.4398 5.61423 1.47668 -37.9265 7.00822 2.41057 -25.2127 4.8696 1.08785 -33.5321 -3.16183 -0.954488 -43.1394 -3.91166 -1.54709 -28.7341 -2.75235 -0.70443 -36.8632 -6.84171 -2.28213 -47.5316 -8.39231 -3.70089 -31.5572 -5.97539 -1.68976 2.13443e-07 -2.66804e-08 0 38.0795 32.791 56.9631 15.1686 3.7426 27.5734 -4.26887e-07 -3.41509e-06 0 -4.10661 20.7048 22.2077 -0 0 0 14.9605 0.194241 1.47933 23.6399 6.85951 -1.43747 30.4867 8.6541 -2.36202 20.237 5.92446 -1.05572 27.6047 5.29469 -1.30084 35.555 6.63352 -2.12808 23.6433 4.58578 -0.959395 31.4502 -2.98674 0.840228 40.4585 -3.7127 1.36885 26.9508 -2.59502 0.623066 34.5591 -6.4726 2.01472 44.5485 -7.98661 3.27563 29.5887 -5.6399 1.48935 3.10097 -5.05262 -3.0057 -0.467514 0.697416 0.125115 2.06629 5.93623 -4.4625 -0.0022705 -0.820166 -0.314035 113.477 -82.7512 104.562 170.715 61.5367 -164.467 4.26887e-07 1.70755e-06 0 4.26887e-07 -8.53774e-07 0 
11.0527 101.831 3.65462 -1.54315 4.70941 -86.0388 6.78168 0.00531404 0 1.06722e-07 -1.86763e-07 0 -0.906404 -0.093496 3.71587 -3.50804 3.43575 2.67617 -13.9558 -10.5221 -2.39428 1.06722e-07 5.33608e-08 0 -64.2006 31.2691 -38.0316 -12.1795 2.58083 -23.8441 -0 0 0 4.10661 20.7048 -22.2077 -0 0 0 -15.9507 -0.220639 1.57516 -25.2213 7.28489 1.63083 -32.5384 9.1662 2.67997 -21.5873 6.29855 1.20137 -29.4435 5.61488 1.47509 -37.9314 7.00897 2.41154 -25.2159 4.87018 1.09001 -33.5364 -3.16218 -0.952847 -43.1449 -3.91206 -1.54709 -28.7378 -2.75267 -0.70554 -36.8679 -6.84245 -2.28316 -47.5377 -8.39312 -3.70194 -31.5612 -5.97607 -1.68976 1.06722e-07 5.33608e-08 0 37.7968 32.8449 56.7343 15.0563 3.81585 28.2958 -5.97641e-06 7.68396e-06 0 -4.10661 20.7048 22.2077 -0 0 0 14.9648 0.194353 1.48039 23.6468 6.86137 -1.43638 30.4957 8.65635 -2.36401 20.2429 5.9261 -1.05942 27.6127 5.2961 -1.30144 35.5654 6.63519 -2.13065 23.6502 4.58703 -0.96184 31.4593 -2.98751 0.842089 40.4702 -3.71359 1.36828 26.9586 -2.59571 0.619286 34.5691 -6.47423 2.01588 44.5615 -7.98843 3.27706 29.5973 -5.64138 1.49302 2.46256 -4.94841 -3.01584 -0.467958 0.682576 0.118694 2.51933 5.80357 -4.57717 -0.00227063 -0.820203 -0.311533 120.634 -82.1579 110.475 172.083 61.447 -166.717 -3.41509e-06 1.10991e-05 0 -4.26887e-06 2.41523e-14 0 
10.7973 101.787 4.24427 -1.51625 4.56372 -85.9623 6.74599 0.00520448 0.0395647 -3.18055e-15 -1.06722e-07 0 -0.880962 -0.091707 3.71756 -3.51324 3.30854 2.6788 -14.0548 -11.0741 -2.4794 1.06722e-07 1.03387e-07 0 -65.5094 30.7614 -36.98 -11.3371 2.47721 -24.5771 -3.41509e-06 -1.01778e-13 0 4.10661 20.7048 -22.2077 -0 0 0 -15.9483 -0.220572 1.57516 -25.2175 7.28386 1.63179 -32.5334 9.16497 2.67938 -21.584 6.29765 1.20137 -29.439 5.61411 1.47668 -37.9256 7.00807 2.40992 -25.212 4.86949 1.08929 -33.5313 -3.16176 -0.952847 -43.1383 -3.91158 -1.54709 -28.7334 -2.75229 -0.706649 -36.8623 -6.84157 -2.28282 -47.5305 -8.39216 -3.70089 -31.5564 -5.97526 -1.68883 1.06722e-07 1.03387e-07 0 37.659 32.9715 56.2934 14.9844 3.90126 29.0377 -3.41509e-06 4.26887e-07 0 -4.10661 20.7048 22.2077 -0 0 0 14.9826 0.194814 1.48197 23.6753 6.86908 -1.44236 30.5326 8.66568 -2.3693 20.2672 5.93287 -1.05942 27.6458 5.30191 -1.30504 35.6082 6.64205 -2.13579 23.6785 4.59218 -0.959395 31.4968 -2.99071 0.844872 40.5185 -3.71725 1.37228 26.9908 -2.59857 0.624321 34.6107 -6.48099 2.02209 44.6153 -7.99595 3.28446 29.6328 -5.64749 1.49616 1.9082 -5.17061 -3.04014 -0.467985 1.48224 0.125115 2.91305 5.22363 -4.638 -0.0022715 -0.820096 -0.316518 124.989 -81.3535 113.599 173.971 61.476 -169.879 4.26887e-07 -9.39151e-06 0 -8.53774e-07 1.70755e-06 0 
10.5302 101.747 4.70216 -1.52778 4.46979 -85.9511 6.78159 0.00534597 0 -2.13443e-07 1.60083e-07 0 -0.845808 -0.0934239 3.86984 -3.56622 3.35428 2.71997 -14.085 -11.578 -2.54637 -1.49009e-14 2.50129e-07 0 -66.7187 30.264 -35.9731 -10.5487 2.37448 -25.3055 1.01778e-13 -3.41509e-06 0 4.10661 20.7048 -22.2077 -0 0 0 -15.9439 -0.220453 1.57467 -25.2105 7.282 1.63035 -32.5244 9.16274 2.67792 -21.5781 6.29601 1.20137 -29.4309 5.61271 1.47509 -37.9152 7.00645 2.41089 -25.2051 4.86825 1.08857 -33.5221 -3.161 -0.954488 -43.1265 -3.91072 -1.54506 -28.7255 -2.7516 -0.706649 -36.8521 -6.83996 -2.28179 -47.5173 -8.39042 -3.69856 -31.5478 -5.97379 -1.68837 -1.49009e-14 2.50129e-07 0 37.6422 33.174 55.6764 14.9593 3.99858 29.7793 3.41509e-06 -8.53774e-07 0 -4.10661 20.7048 22.2077 -0 0 0 15.0132 0.195606 1.48514 23.7241 6.88231 -1.44831 30.5959 8.68167 -2.37919 20.309 5.94448 -1.06458 27.7026 5.31189 -1.31103 35.6816 6.65382 -2.14274 23.7271 4.60102 -0.969136 31.5613 -2.99619 0.84857 40.6016 -3.72353 1.37684 27.0461 -2.60348 0.626823 34.682 -6.49257 2.02827 44.7077 -8.00883 3.29801 29.6937 -5.65799 1.50138 1.49618 -5.4274 -3.06527 -0.469878 2.4556 0.111906 3.21002 4.54336 -4.57272 -0.00227074 -0.820203 -0.311533 126.926 -80.4613 114.398 176.212 61.5861 -173.648 1.35174e-13 -1.45142e-05 0 8.53774e-07 -1.70755e-06 0 
10.2739 101.72 4.98271 -1.56538 4.42539 -86.0369 6.87834 0.00559217 0.0395647 2.13443e-07 -1.60083e-07 0 -0.805113 -0.0983123 4.16487 -3.67126 3.56838 2.80219 -14.0365 -12.0073 -2.58965 -0 0 0 -67.765 29.8106 -35.0295 -9.8819 2.2896 -26.0312 2.54444e-13 1.70755e-05 0 4.10661 20.7048 -22.2077 -0 0 0 -15.9402 -0.220351 1.57417 -25.2046 7.28042 1.62891 -32.5166 9.16084 2.67704 -21.573 6.29461 1.20071 -29.424 5.61152 1.47456 -37.9062 7.00506 2.40732 -25.1992 4.86719 1.08785 -33.5143 -3.16035 -0.951202 -43.1165 -3.90999 -1.54456 -28.7188 -2.75101 -0.703318 -36.8434 -6.8386 -2.28111 -47.5061 -8.38894 -3.69687 -31.5404 -5.97255 -1.6879 -0 0 0 37.7024 33.4442 54.9463 14.9815 4.10552 30.4958 -4.26887e-07 -3.41509e-06 0 -4.10661 20.7048 22.2077 -0 0 0 15.0543 0.196671 1.48935 23.7896 6.90003 -1.45532 30.6808 8.70308 -2.39166 20.3649 5.96004 -1.07191 27.7788 5.32526 -1.31817 35.78 6.66958 -2.15476 23.7922 4.61287 -0.973165 31.6478 -3.00353 0.852251 40.7129 -3.73194 1.38364 27.1201 -2.61006 0.630558 34.7776 -6.50809 2.03943 44.8314 -8.02606 3.31553 29.7754 -5.67203 1.50763 1.26021 -5.60679 -3.08157 -0.469082 3.31378 0.118694 3.38595 3.92112 -4.47704 -0.00227118 -0.8202 -0.306467 127.023 -79.5706 113.528 178.632 61.7428 -177.712 3.84198e-06 -7.68396e-06 0 4.26887e-06 -1.11319e-13 0 
10.051 101.712 5.05374 -1.61044 4.42084 -86.2397 7.01543 0.00604891 0 -1.42985e-14 4.80248e-07 0 -0.76297 -0.10571 4.57631 -3.8266 3.91366 2.92626 -13.9099 -12.3331 -2.60532 -2.13443e-07 -2.26784e-07 0 -68.5929 29.4292 -34.1662 -9.38894 2.23757 -26.7548 -0 0 0 4.10661 20.7048 -22.2077 -0 0 0 -15.9396 -0.220333 1.57417 -25.2036 7.28014 1.62987 -32.5153 9.16051 2.67675 -21.5721 6.29437 1.20071 -29.4228 5.61131 1.47562 -37.9047 7.00482 2.40765 -25.1982 4.867 1.08857 -33.5129 -3.16024 -0.951202 -43.1147 -3.90986 -1.54557 -28.7177 -2.75091 -0.70554 -36.8419 -6.83836 -2.28042 -47.5041 -8.38867 -3.69729 -31.5391 -5.97233 -1.68837 -2.13443e-07 -2.26784e-07 0 37.7813 33.764 54.185 15.0462 4.21806 31.1627 -8.11085e-06 -8.53773e-07 0.0559529 -4.10661 20.7048 22.2077 -0 0 0 15.1021 0.197915 1.49302 23.8659 6.92066 -1.46497 30.7798 8.72801 -2.40634 20.43 5.97816 -1.07846 27.8675 5.34081 -1.32587 35.8946 6.68792 -2.16816 23.8681 4.62666 -0.977179 31.7484 -3.01207 0.855917 40.8425 -3.74171 1.39266 27.2063 -2.61772 0.633036 34.889 -6.52614 2.05206 44.9756 -8.04608 3.33531 29.8706 -5.68839 1.52004 1.21128 -5.68848 -3.08867 -0.471533 3.94826 0.125115 3.41586 3.43577 -4.18699 -0.0022718 -0.82012 -0.311533 125.798 -78.7421 111.566 -178.929 61.9193 178.215 -1.70755e-06 -1.70755e-06 0 -8.53774e-07 -1.70755e-06 0 
